<?xml version="1.0" standalone="no"?><!DOCTYPE svg PUBLIC "-//W3C//DTD SVG 1.1//EN" "http://www.w3.org/Graphics/SVG/1.1/DTD/svg11.dtd"><svg t="1589008940379" class="icon" viewBox="0 0 1024 1024" version="1.1" xmlns="http://www.w3.org/2000/svg" p-id="3015" xmlns:xlink="http://www.w3.org/1999/xlink" width="200" height="200"><defs><style type="text/css"></style></defs><path d="M347.428571 274.285714a18.285714 18.285714 0 1 1 0-36.571428h475.428572a18.285714 18.285714 0 1 1 0 36.571428h-475.428572z m-146.285714 0a18.285714 18.285714 0 1 1 0-36.571428h36.571429a18.285714 18.285714 0 0 1 0 36.571428h-36.571429z m146.285714 256a18.285714 18.285714 0 1 1 0-36.571428h475.428572a18.285714 18.285714 0 1 1 0 36.571428h-475.428572z m-146.285714 0a18.285714 18.285714 0 1 1 0-36.571428h36.571429a18.285714 18.285714 0 1 1 0 36.571428h-36.571429z m146.285714 256a18.285714 18.285714 0 1 1 0-36.571428h475.428572a18.285714 18.285714 0 1 1 0 36.571428h-475.428572z m-146.285714 0a18.285714 18.285714 0 1 1 0-36.571428h36.571429a18.285714 18.285714 0 1 1 0 36.571428h-36.571429z" p-id="3016" fill="#e6e6e6"></path></svg>