<?xml version="1.0" standalone="no"?><!DOCTYPE svg PUBLIC "-//W3C//DTD SVG 1.1//EN" "http://www.w3.org/Graphics/SVG/1.1/DTD/svg11.dtd"><svg t="1589009010175" class="icon" viewBox="0 0 1024 1024" version="1.1" xmlns="http://www.w3.org/2000/svg" p-id="3387" xmlns:xlink="http://www.w3.org/1999/xlink" width="200" height="200"><defs><style type="text/css"></style></defs><path d="M512 896C299.922286 896 128 724.077714 128 512S299.922286 128 512 128 896 299.922286 896 512 724.077714 896 512 896z m0-36.571429a347.428571 347.428571 0 1 0 0-694.857142 347.428571 347.428571 0 0 0 0 694.857142z m-109.714286-475.428571h73.142857a18.285714 18.285714 0 0 1 18.285715 18.285714v219.428572a18.285714 18.285714 0 0 1-18.285715 18.285714h-73.142857a18.285714 18.285714 0 0 1-18.285714-18.285714v-219.428572a18.285714 18.285714 0 0 1 18.285714-18.285714z m146.285715 0h73.142857a18.285714 18.285714 0 0 1 18.285714 18.285714v219.428572a18.285714 18.285714 0 0 1-18.285714 18.285714h-73.142857a18.285714 18.285714 0 0 1-18.285715-18.285714v-219.428572a18.285714 18.285714 0 0 1 18.285715-18.285714z" p-id="3388" fill="#e6e6e6"></path></svg>