<?xml version="1.0" standalone="no"?><!DOCTYPE svg PUBLIC "-//W3C//DTD SVG 1.1//EN" "http://www.w3.org/Graphics/SVG/1.1/DTD/svg11.dtd"><svg t="1589009181646" class="icon" viewBox="0 0 1024 1024" version="1.1" xmlns="http://www.w3.org/2000/svg" p-id="5059" xmlns:xlink="http://www.w3.org/1999/xlink" width="200" height="200"><defs><style type="text/css"></style></defs><path d="M768 733.866667H256c-51.694933 0-96.529067-18.619733-133.239467-55.3472C86.596267 642.3552 68.266667 597.8112 68.266667 546.133333c0-51.6096 18.295467-96.4096 54.391466-133.137066C159.5904 376.695467 204.3904 358.4 256 358.4h172.373333a17.066667 17.066667 0 0 1 0 34.133333H256c-42.9568 0-78.677333 14.592-109.2096 44.5952C116.992 467.456 102.4 503.176533 102.4 546.133333c0 42.9056 14.557867 78.301867 44.4928 108.253867C177.408 684.9024 213.0944 699.733333 256 699.733333h512c42.8544 0 78.2336-14.7968 108.151467-45.243733C906.8032 624.366933 921.6 588.987733 921.6 546.133333c0-42.9056-14.830933-78.592-45.346133-109.1072C846.301867 407.0912 810.9056 392.533333 768 392.533333H553.762133l55.7056 56.251734a17.066667 17.066667 0 1 1-24.2688 24.0128l-84.3776-85.248-0.938666-1.006934a16.896 16.896 0 0 1-4.061867-12.1856v-0.017066-0.017067a17.032533 17.032533 0 0 1 4.9152-10.888533l84.462933-85.333334a17.066667 17.066667 0 0 1 24.2688 24.0128L553.762133 358.4H768c51.677867 0 96.221867 18.3296 132.386133 54.493867C937.1136 449.604267 955.733333 494.4384 955.733333 546.133333c0 51.746133-18.653867 96.341333-55.4496 132.488534C864.341333 715.2128 819.746133 733.866667 768 733.866667z" p-id="5060" fill="#e6e6e6"></path></svg>